<svg xmlns="http://www.w3.org/2000/svg" xmlns:xlink="http://www.w3.org/1999/xlink" width="250" zoomAndPan="magnify" viewBox="0 0 187.5 225" height="300" preserveAspectRatio="xMidYMid meet" version="1.0"><defs><g/><clipPath id="f61c45b23a"><path d="M 0 0.300781 L 187 0.300781 L 187 224.699219 L 0 224.699219 Z M 0 0.300781 " clip-rule="nonzero"/></clipPath><clipPath id="dc8adaa01a"><path d="M 41.21875 44.375 L 89.421875 44.375 L 89.421875 45.101562 L 41.21875 45.101562 Z M 41.21875 45.101562 L 41.945312 45.101562 L 41.945312 108.847656 L 41.21875 108.847656 Z M 41.21875 45.101562 " clip-rule="nonzero"/></clipPath></defs><g clip-path="url(#f61c45b23a)"><path fill="#ffffff" d="M 0 0.300781 L 187.5 0.300781 L 187.5 232.050781 L 0 232.050781 Z M 0 0.300781 " fill-opacity="1" fill-rule="nonzero"/><path fill="#ffffff" d="M 0 0.300781 L 187.5 0.300781 L 187.5 225.300781 L 0 225.300781 Z M 0 0.300781 " fill-opacity="1" fill-rule="nonzero"/><path fill="#f5f5ef" d="M 0 0.300781 L 187.5 0.300781 L 187.5 225.300781 L 0 225.300781 Z M 0 0.300781 " fill-opacity="1" fill-rule="nonzero"/></g><g fill="#000000" fill-opacity="1"><g transform="translate(145.763733, 56.37509)"><g/></g></g><g fill="#000000" fill-opacity="1"><g transform="translate(145.763733, 73.625089)"><g/></g></g><g fill="#000000" fill-opacity="1"><g transform="translate(141.087952, 91.625087)"><g/></g></g><g fill="#000000" fill-opacity="1"><g transform="translate(145.763733, 105.875086)"><g/></g></g><g clip-path="url(#dc8adaa01a)"><path fill="#000000" d="M 41.21875 44.375 L 89.480469 44.375 L 89.480469 108.882812 L 41.21875 108.882812 Z M 41.21875 44.375 " fill-opacity="1" fill-rule="nonzero"/></g><g fill="#000000" fill-opacity="1"><g transform="translate(50.028513, 81.687567)"><g><path d="M 5.203125 0.0625 C 4.859375 0.0625 4.476562 0.046875 4.0625 0.015625 C 3.894531 0.00390625 3.691406 -0.00390625 3.453125 -0.015625 C 3.210938 -0.0234375 2.945312 -0.03125 2.65625 -0.03125 L 1.5 -0.015625 C 1.289062 -0.00390625 1 0 0.625 0 C 0.601562 0 0.59375 -0.03125 0.59375 -0.09375 C 0.59375 -0.164062 0.601562 -0.203125 0.625 -0.203125 C 1.082031 -0.203125 1.414062 -0.234375 1.625 -0.296875 C 1.84375 -0.359375 1.992188 -0.472656 2.078125 -0.640625 C 2.160156 -0.804688 2.203125 -1.066406 2.203125 -1.421875 L 2.203125 -9.515625 C 2.203125 -9.867188 2.164062 -10.125 2.09375 -10.28125 C 2.019531 -10.445312 1.875 -10.5625 1.65625 -10.625 C 1.4375 -10.695312 1.097656 -10.734375 0.640625 -10.734375 C 0.617188 -10.734375 0.609375 -10.765625 0.609375 -10.828125 C 0.609375 -10.898438 0.617188 -10.9375 0.640625 -10.9375 L 1.5 -10.921875 C 1.988281 -10.898438 2.375 -10.890625 2.65625 -10.890625 C 3.0625 -10.890625 3.476562 -10.90625 3.90625 -10.9375 C 4.414062 -10.957031 4.765625 -10.96875 4.953125 -10.96875 C 6.179688 -10.96875 7.265625 -10.734375 8.203125 -10.265625 C 9.148438 -9.804688 9.882812 -9.171875 10.40625 -8.359375 C 10.925781 -7.554688 11.1875 -6.65625 11.1875 -5.65625 C 11.1875 -4.519531 10.914062 -3.515625 10.375 -2.640625 C 9.832031 -1.773438 9.101562 -1.109375 8.1875 -0.640625 C 7.28125 -0.171875 6.285156 0.0625 5.203125 0.0625 Z M 5.015625 -0.15625 C 6.003906 -0.15625 6.875 -0.351562 7.625 -0.75 C 8.382812 -1.144531 8.976562 -1.726562 9.40625 -2.5 C 9.832031 -3.269531 10.046875 -4.191406 10.046875 -5.265625 C 10.046875 -6.296875 9.84375 -7.222656 9.4375 -8.046875 C 9.039062 -8.878906 8.460938 -9.535156 7.703125 -10.015625 C 6.953125 -10.503906 6.085938 -10.75 5.109375 -10.75 C 4.597656 -10.75 4.203125 -10.71875 3.921875 -10.65625 C 3.648438 -10.59375 3.445312 -10.472656 3.3125 -10.296875 C 3.1875 -10.117188 3.125 -9.847656 3.125 -9.484375 L 3.125 -1.609375 C 3.125 -1.253906 3.175781 -0.972656 3.28125 -0.765625 C 3.394531 -0.554688 3.582031 -0.398438 3.84375 -0.296875 C 4.113281 -0.203125 4.503906 -0.15625 5.015625 -0.15625 Z M 5.015625 -0.15625 "/></g></g></g><g fill="#000000" fill-opacity="1"><g transform="translate(62.065797, 81.687567)"><g><path d="M 3.359375 -1.421875 C 3.359375 -1.054688 3.394531 -0.789062 3.46875 -0.625 C 3.550781 -0.46875 3.695312 -0.359375 3.90625 -0.296875 C 4.113281 -0.234375 4.453125 -0.203125 4.921875 -0.203125 C 4.941406 -0.203125 4.953125 -0.164062 4.953125 -0.09375 C 4.953125 -0.03125 4.941406 0 4.921875 0 C 4.566406 0 4.289062 -0.00390625 4.09375 -0.015625 L 2.875 -0.03125 L 1.703125 -0.015625 C 1.484375 -0.00390625 1.195312 0 0.84375 0 C 0.800781 0 0.78125 -0.03125 0.78125 -0.09375 C 0.78125 -0.164062 0.800781 -0.203125 0.84375 -0.203125 C 1.289062 -0.203125 1.625 -0.234375 1.84375 -0.296875 C 2.0625 -0.359375 2.210938 -0.472656 2.296875 -0.640625 C 2.378906 -0.804688 2.421875 -1.066406 2.421875 -1.421875 L 2.421875 -9.515625 C 2.421875 -9.867188 2.378906 -10.125 2.296875 -10.28125 C 2.210938 -10.445312 2.0625 -10.5625 1.84375 -10.625 C 1.625 -10.695312 1.289062 -10.734375 0.84375 -10.734375 C 0.800781 -10.734375 0.78125 -10.765625 0.78125 -10.828125 C 0.78125 -10.898438 0.800781 -10.9375 0.84375 -10.9375 L 1.703125 -10.921875 C 2.191406 -10.898438 2.582031 -10.890625 2.875 -10.890625 C 3.195312 -10.890625 3.601562 -10.898438 4.09375 -10.921875 L 4.921875 -10.9375 C 4.941406 -10.9375 4.953125 -10.898438 4.953125 -10.828125 C 4.953125 -10.765625 4.941406 -10.734375 4.921875 -10.734375 C 4.460938 -10.734375 4.125 -10.695312 3.90625 -10.625 C 3.695312 -10.550781 3.550781 -10.429688 3.46875 -10.265625 C 3.394531 -10.097656 3.359375 -9.835938 3.359375 -9.484375 Z M 3.359375 -1.421875 "/></g></g></g><g fill="#000000" fill-opacity="1"><g transform="translate(67.839495, 81.687567)"><g><path d="M 8.21875 -2.5625 C 8.21875 -2.59375 8.253906 -2.601562 8.328125 -2.59375 C 8.398438 -2.59375 8.4375 -2.570312 8.4375 -2.53125 C 8.332031 -1.800781 8.28125 -1.046875 8.28125 -0.265625 C 8.28125 -0.171875 8.257812 -0.101562 8.21875 -0.0625 C 8.175781 -0.0195312 8.101562 0 8 0 L 0.765625 0 C 0.742188 0 0.734375 -0.03125 0.734375 -0.09375 C 0.734375 -0.164062 0.742188 -0.203125 0.765625 -0.203125 C 1.222656 -0.203125 1.554688 -0.234375 1.765625 -0.296875 C 1.984375 -0.359375 2.128906 -0.472656 2.203125 -0.640625 C 2.285156 -0.804688 2.328125 -1.066406 2.328125 -1.421875 L 2.328125 -9.515625 C 2.328125 -9.867188 2.285156 -10.125 2.203125 -10.28125 C 2.128906 -10.445312 1.984375 -10.5625 1.765625 -10.625 C 1.554688 -10.695312 1.222656 -10.734375 0.765625 -10.734375 C 0.742188 -10.734375 0.734375 -10.765625 0.734375 -10.828125 C 0.734375 -10.898438 0.742188 -10.9375 0.765625 -10.9375 L 7.703125 -10.9375 C 7.804688 -10.9375 7.859375 -10.882812 7.859375 -10.78125 L 7.890625 -8.65625 C 7.890625 -8.625 7.859375 -8.609375 7.796875 -8.609375 C 7.734375 -8.609375 7.703125 -8.625 7.703125 -8.65625 C 7.703125 -9.257812 7.539062 -9.734375 7.21875 -10.078125 C 6.90625 -10.429688 6.492188 -10.609375 5.984375 -10.609375 L 4.78125 -10.609375 C 4.332031 -10.609375 4.003906 -10.578125 3.796875 -10.515625 C 3.585938 -10.460938 3.441406 -10.351562 3.359375 -10.1875 C 3.285156 -10.019531 3.25 -9.765625 3.25 -9.421875 L 3.25 -5.859375 L 5.5625 -5.859375 C 6.101562 -5.859375 6.476562 -5.945312 6.6875 -6.125 C 6.894531 -6.3125 7 -6.625 7 -7.0625 C 7 -7.09375 7.03125 -7.109375 7.09375 -7.109375 C 7.164062 -7.109375 7.203125 -7.09375 7.203125 -7.0625 L 7.1875 -5.6875 C 7.1875 -5.351562 7.191406 -5.101562 7.203125 -4.9375 L 7.234375 -4.109375 C 7.234375 -4.085938 7.195312 -4.078125 7.125 -4.078125 C 7.050781 -4.078125 7.015625 -4.085938 7.015625 -4.109375 C 7.015625 -4.640625 6.90625 -5.007812 6.6875 -5.21875 C 6.46875 -5.425781 6.078125 -5.53125 5.515625 -5.53125 L 3.25 -5.53125 L 3.25 -1.484375 C 3.25 -1.148438 3.285156 -0.898438 3.359375 -0.734375 C 3.441406 -0.578125 3.582031 -0.46875 3.78125 -0.40625 C 3.988281 -0.351562 4.320312 -0.328125 4.78125 -0.328125 L 6.390625 -0.328125 C 6.859375 -0.328125 7.253906 -0.53125 7.578125 -0.9375 C 7.910156 -1.351562 8.125 -1.894531 8.21875 -2.5625 Z M 8.21875 -2.5625 "/></g></g></g><g fill="#000000" fill-opacity="1"><g transform="translate(77.16489, 81.687567)"><g><path d="M 7.125 -11.125 C 7.894531 -11.125 8.523438 -11.066406 9.015625 -10.953125 C 9.503906 -10.847656 10.019531 -10.65625 10.5625 -10.375 C 10.632812 -10.332031 10.679688 -10.296875 10.703125 -10.265625 C 10.722656 -10.234375 10.738281 -10.144531 10.75 -10 L 10.953125 -8 C 10.953125 -7.957031 10.921875 -7.929688 10.859375 -7.921875 C 10.796875 -7.921875 10.757812 -7.941406 10.75 -7.984375 C 10.488281 -8.953125 10.0625 -9.675781 9.46875 -10.15625 C 8.875 -10.644531 8.09375 -10.890625 7.125 -10.890625 C 6.09375 -10.890625 5.1875 -10.671875 4.40625 -10.234375 C 3.632812 -9.804688 3.035156 -9.191406 2.609375 -8.390625 C 2.191406 -7.585938 1.984375 -6.65625 1.984375 -5.59375 C 1.984375 -4.601562 2.21875 -3.679688 2.6875 -2.828125 C 3.15625 -1.972656 3.789062 -1.289062 4.59375 -0.78125 C 5.394531 -0.269531 6.25 -0.015625 7.15625 -0.015625 C 9.09375 -0.015625 10.332031 -0.96875 10.875 -2.875 C 10.875 -2.894531 10.898438 -2.90625 10.953125 -2.90625 C 11.035156 -2.90625 11.078125 -2.890625 11.078125 -2.859375 L 10.9375 -1 C 10.925781 -0.851562 10.90625 -0.765625 10.875 -0.734375 C 10.851562 -0.703125 10.8125 -0.660156 10.75 -0.609375 C 10.132812 -0.296875 9.5625 -0.078125 9.03125 0.046875 C 8.507812 0.171875 7.878906 0.234375 7.140625 0.234375 C 5.921875 0.234375 4.835938 -0.00390625 3.890625 -0.484375 C 2.941406 -0.972656 2.195312 -1.660156 1.65625 -2.546875 C 1.125 -3.429688 0.859375 -4.441406 0.859375 -5.578125 C 0.859375 -6.679688 1.125 -7.648438 1.65625 -8.484375 C 2.195312 -9.328125 2.941406 -9.976562 3.890625 -10.4375 C 4.835938 -10.894531 5.914062 -11.125 7.125 -11.125 Z M 7.125 -11.125 "/></g></g></g><g fill="#000000" fill-opacity="1"><g transform="translate(89.184676, 81.687567)"><g><path d="M 11.109375 -0.203125 C 11.148438 -0.203125 11.171875 -0.164062 11.171875 -0.09375 C 11.171875 -0.03125 11.148438 0 11.109375 0 L 9.15625 0 C 8.75 0 8.503906 -0.0195312 8.421875 -0.0625 C 8.335938 -0.113281 8.125 -0.382812 7.78125 -0.875 C 7.4375 -1.363281 7.019531 -1.914062 6.53125 -2.53125 L 3.75 -5.984375 L 3.125 -5.390625 L 3.125 -1.421875 C 3.125 -1.054688 3.160156 -0.789062 3.234375 -0.625 C 3.316406 -0.46875 3.460938 -0.359375 3.671875 -0.296875 C 3.878906 -0.234375 4.21875 -0.203125 4.6875 -0.203125 C 4.707031 -0.203125 4.71875 -0.164062 4.71875 -0.09375 C 4.71875 -0.03125 4.707031 0 4.6875 0 C 4.34375 0 4.0625 -0.00390625 3.84375 -0.015625 L 2.65625 -0.03125 L 1.5 -0.015625 C 1.289062 -0.00390625 1 0 0.625 0 C 0.601562 0 0.59375 -0.03125 0.59375 -0.09375 C 0.59375 -0.164062 0.601562 -0.203125 0.625 -0.203125 C 1.082031 -0.203125 1.414062 -0.234375 1.625 -0.296875 C 1.84375 -0.359375 1.992188 -0.472656 2.078125 -0.640625 C 2.160156 -0.804688 2.203125 -1.066406 2.203125 -1.421875 L 2.203125 -9.515625 C 2.203125 -9.867188 2.164062 -10.125 2.09375 -10.28125 C 2.019531 -10.445312 1.875 -10.5625 1.65625 -10.625 C 1.4375 -10.695312 1.097656 -10.734375 0.640625 -10.734375 C 0.617188 -10.734375 0.609375 -10.765625 0.609375 -10.828125 C 0.609375 -10.898438 0.617188 -10.9375 0.640625 -10.9375 L 1.5 -10.921875 C 1.988281 -10.898438 2.375 -10.890625 2.65625 -10.890625 C 2.96875 -10.890625 3.375 -10.898438 3.875 -10.921875 L 4.6875 -10.9375 C 4.707031 -10.9375 4.71875 -10.898438 4.71875 -10.828125 C 4.71875 -10.765625 4.707031 -10.734375 4.6875 -10.734375 C 4.226562 -10.734375 3.890625 -10.695312 3.671875 -10.625 C 3.460938 -10.550781 3.316406 -10.429688 3.234375 -10.265625 C 3.160156 -10.097656 3.125 -9.835938 3.125 -9.484375 L 3.125 -5.796875 L 6.984375 -9.625 C 7.378906 -10.019531 7.578125 -10.296875 7.578125 -10.453125 C 7.578125 -10.554688 7.5 -10.628906 7.34375 -10.671875 C 7.1875 -10.710938 6.925781 -10.734375 6.5625 -10.734375 C 6.539062 -10.734375 6.53125 -10.765625 6.53125 -10.828125 C 6.53125 -10.898438 6.539062 -10.9375 6.5625 -10.9375 L 7.296875 -10.921875 C 7.742188 -10.898438 8.160156 -10.890625 8.546875 -10.890625 C 8.898438 -10.890625 9.273438 -10.898438 9.671875 -10.921875 L 10.296875 -10.9375 C 10.328125 -10.9375 10.34375 -10.898438 10.34375 -10.828125 C 10.34375 -10.765625 10.328125 -10.734375 10.296875 -10.734375 C 9.816406 -10.734375 9.320312 -10.640625 8.8125 -10.453125 C 8.300781 -10.273438 7.828125 -9.960938 7.390625 -9.515625 L 4.40625 -6.609375 L 6.90625 -3.46875 C 7.800781 -2.351562 8.476562 -1.566406 8.9375 -1.109375 C 9.40625 -0.660156 9.757812 -0.394531 10 -0.3125 C 10.25 -0.238281 10.617188 -0.203125 11.109375 -0.203125 Z M 11.109375 -0.203125 "/></g></g></g><g fill="#000000" fill-opacity="1"><g transform="translate(100.539612, 81.687567)"><g><path d="M 14.125 -0.203125 C 14.15625 -0.203125 14.171875 -0.164062 14.171875 -0.09375 C 14.171875 -0.03125 14.15625 0 14.125 0 C 13.757812 0 13.472656 -0.00390625 13.265625 -0.015625 L 12.09375 -0.03125 L 11 -0.015625 C 10.832031 -0.00390625 10.585938 0 10.265625 0 C 10.242188 0 10.234375 -0.03125 10.234375 -0.09375 C 10.234375 -0.164062 10.242188 -0.203125 10.265625 -0.203125 C 10.679688 -0.203125 10.984375 -0.234375 11.171875 -0.296875 C 11.367188 -0.367188 11.5 -0.484375 11.5625 -0.640625 C 11.625 -0.804688 11.644531 -1.066406 11.625 -1.421875 L 11.328125 -9.5625 L 7.234375 -0.125 C 7.203125 -0.0703125 7.15625 -0.046875 7.09375 -0.046875 C 7.03125 -0.046875 6.976562 -0.0703125 6.9375 -0.125 L 2.65625 -9.484375 L 2.640625 -9.515625 L 2.5 -1.8125 C 2.488281 -1.207031 2.585938 -0.785156 2.796875 -0.546875 C 3.003906 -0.316406 3.394531 -0.203125 3.96875 -0.203125 C 3.988281 -0.203125 4 -0.164062 4 -0.09375 C 4 -0.03125 3.988281 0 3.96875 0 C 3.644531 0 3.394531 -0.00390625 3.21875 -0.015625 L 2.28125 -0.03125 L 1.421875 -0.015625 C 1.265625 -0.00390625 1.035156 0 0.734375 0 C 0.710938 0 0.703125 -0.03125 0.703125 -0.09375 C 0.703125 -0.164062 0.710938 -0.203125 0.734375 -0.203125 C 1.222656 -0.203125 1.566406 -0.320312 1.765625 -0.5625 C 1.972656 -0.800781 2.082031 -1.21875 2.09375 -1.8125 L 2.28125 -10.109375 C 1.914062 -10.523438 1.441406 -10.734375 0.859375 -10.734375 C 0.835938 -10.734375 0.828125 -10.765625 0.828125 -10.828125 C 0.828125 -10.898438 0.835938 -10.9375 0.859375 -10.9375 L 1.453125 -10.921875 C 1.566406 -10.910156 1.71875 -10.90625 1.90625 -10.90625 C 2.09375 -10.90625 2.25 -10.910156 2.375 -10.921875 C 2.507812 -10.929688 2.609375 -10.9375 2.671875 -10.9375 C 2.835938 -10.9375 2.96875 -10.878906 3.0625 -10.765625 C 3.15625 -10.660156 3.296875 -10.414062 3.484375 -10.03125 L 7.421875 -1.515625 L 11.34375 -10.5 C 11.394531 -10.625 11.46875 -10.726562 11.5625 -10.8125 C 11.664062 -10.894531 11.765625 -10.9375 11.859375 -10.9375 C 11.910156 -10.9375 11.988281 -10.929688 12.09375 -10.921875 C 12.195312 -10.910156 12.34375 -10.90625 12.53125 -10.90625 L 13.3125 -10.921875 C 13.4375 -10.929688 13.617188 -10.9375 13.859375 -10.9375 C 13.878906 -10.9375 13.890625 -10.898438 13.890625 -10.828125 C 13.890625 -10.765625 13.878906 -10.734375 13.859375 -10.734375 C 13.253906 -10.734375 12.828125 -10.648438 12.578125 -10.484375 C 12.328125 -10.328125 12.207031 -10.019531 12.21875 -9.5625 L 12.546875 -1.421875 C 12.554688 -1.054688 12.597656 -0.789062 12.671875 -0.625 C 12.753906 -0.46875 12.898438 -0.359375 13.109375 -0.296875 C 13.328125 -0.234375 13.664062 -0.203125 14.125 -0.203125 Z M 14.125 -0.203125 "/></g></g></g><g fill="#000000" fill-opacity="1"><g transform="translate(115.061333, 81.687567)"><g><path d="M 12.140625 -0.203125 C 12.191406 -0.203125 12.21875 -0.164062 12.21875 -0.09375 C 12.21875 -0.03125 12.191406 0 12.140625 0 C 11.929688 0 11.59375 -0.0078125 11.125 -0.03125 C 10.6875 -0.0507812 10.363281 -0.0625 10.15625 -0.0625 C 9.90625 -0.0625 9.582031 -0.0507812 9.1875 -0.03125 C 8.8125 -0.0078125 8.53125 0 8.34375 0 C 8.300781 0 8.28125 -0.03125 8.28125 -0.09375 C 8.28125 -0.164062 8.300781 -0.203125 8.34375 -0.203125 C 8.820312 -0.203125 9.164062 -0.242188 9.375 -0.328125 C 9.582031 -0.421875 9.6875 -0.570312 9.6875 -0.78125 C 9.6875 -0.945312 9.625 -1.175781 9.5 -1.46875 L 7.859375 -5.015625 L 3.6875 -5.015625 L 2.5 -2.15625 C 2.332031 -1.757812 2.25 -1.429688 2.25 -1.171875 C 2.25 -0.835938 2.390625 -0.59375 2.671875 -0.4375 C 2.953125 -0.28125 3.390625 -0.203125 3.984375 -0.203125 C 4.046875 -0.203125 4.078125 -0.164062 4.078125 -0.09375 C 4.078125 -0.03125 4.046875 0 3.984375 0 C 3.773438 0 3.472656 -0.0078125 3.078125 -0.03125 C 2.640625 -0.0507812 2.253906 -0.0625 1.921875 -0.0625 C 1.628906 -0.0625 1.285156 -0.0507812 0.890625 -0.03125 C 0.546875 -0.0078125 0.257812 0 0.03125 0 C -0.0195312 0 -0.046875 -0.03125 -0.046875 -0.09375 C -0.046875 -0.164062 -0.0195312 -0.203125 0.03125 -0.203125 C 0.363281 -0.203125 0.640625 -0.257812 0.859375 -0.375 C 1.085938 -0.5 1.300781 -0.710938 1.5 -1.015625 C 1.707031 -1.316406 1.929688 -1.75 2.171875 -2.3125 L 5.828125 -11.109375 C 5.847656 -11.148438 5.882812 -11.171875 5.9375 -11.171875 C 5.988281 -11.171875 6.019531 -11.148438 6.03125 -11.109375 L 10.09375 -2.390625 C 10.363281 -1.796875 10.601562 -1.34375 10.8125 -1.03125 C 11.019531 -0.726562 11.226562 -0.515625 11.4375 -0.390625 C 11.644531 -0.265625 11.878906 -0.203125 12.140625 -0.203125 Z M 3.828125 -5.34375 L 7.703125 -5.34375 L 5.65625 -9.734375 Z M 3.828125 -5.34375 "/></g></g></g><g fill="#000000" fill-opacity="1"><g transform="translate(127.273574, 81.687567)"><g><path d="M 12.234375 -10.9375 C 12.265625 -10.9375 12.28125 -10.898438 12.28125 -10.828125 C 12.28125 -10.765625 12.265625 -10.734375 12.234375 -10.734375 C 11.734375 -10.734375 11.378906 -10.609375 11.171875 -10.359375 C 10.972656 -10.117188 10.875 -9.695312 10.875 -9.09375 L 10.875 0.1875 C 10.875 0.21875 10.84375 0.238281 10.78125 0.25 C 10.71875 0.257812 10.675781 0.253906 10.65625 0.234375 L 2.75 -9.5 L 2.453125 -9.828125 L 2.453125 -1.8125 C 2.453125 -1.21875 2.550781 -0.800781 2.75 -0.5625 C 2.945312 -0.320312 3.289062 -0.203125 3.78125 -0.203125 C 3.8125 -0.203125 3.828125 -0.164062 3.828125 -0.09375 C 3.828125 -0.03125 3.8125 0 3.78125 0 C 3.5 0 3.28125 -0.00390625 3.125 -0.015625 L 2.296875 -0.03125 L 1.4375 -0.015625 C 1.28125 -0.00390625 1.050781 0 0.75 0 C 0.726562 0 0.71875 -0.03125 0.71875 -0.09375 C 0.71875 -0.164062 0.726562 -0.203125 0.75 -0.203125 C 1.25 -0.203125 1.59375 -0.316406 1.78125 -0.546875 C 1.96875 -0.785156 2.0625 -1.207031 2.0625 -1.8125 L 2.0625 -10.203125 C 1.65625 -10.554688 1.238281 -10.734375 0.8125 -10.734375 C 0.769531 -10.734375 0.75 -10.765625 0.75 -10.828125 C 0.75 -10.898438 0.769531 -10.9375 0.8125 -10.9375 L 1.4375 -10.921875 C 1.5625 -10.910156 1.742188 -10.90625 1.984375 -10.90625 C 2.179688 -10.90625 2.34375 -10.910156 2.46875 -10.921875 C 2.59375 -10.929688 2.691406 -10.9375 2.765625 -10.9375 C 2.847656 -10.9375 2.914062 -10.914062 2.96875 -10.875 C 3.019531 -10.832031 3.082031 -10.75 3.15625 -10.625 C 3.28125 -10.414062 3.414062 -10.21875 3.5625 -10.03125 L 10.484375 -1.4375 L 10.484375 -9.09375 C 10.484375 -9.695312 10.390625 -10.117188 10.203125 -10.359375 C 10.015625 -10.609375 9.675781 -10.734375 9.1875 -10.734375 C 9.164062 -10.734375 9.15625 -10.765625 9.15625 -10.828125 C 9.15625 -10.898438 9.164062 -10.9375 9.1875 -10.9375 L 9.859375 -10.921875 C 10.203125 -10.898438 10.476562 -10.890625 10.6875 -10.890625 C 10.882812 -10.890625 11.171875 -10.898438 11.546875 -10.921875 Z M 12.234375 -10.9375 "/></g></g></g><g fill="#000000" fill-opacity="1"><g transform="translate(79.325377, 58.37505)"><g><path d="M 5.203125 0.0625 C 4.859375 0.0625 4.476562 0.046875 4.0625 0.015625 C 3.894531 0.00390625 3.691406 -0.00390625 3.453125 -0.015625 C 3.210938 -0.0234375 2.945312 -0.03125 2.65625 -0.03125 L 1.5 -0.015625 C 1.289062 -0.00390625 1 0 0.625 0 C 0.601562 0 0.59375 -0.03125 0.59375 -0.09375 C 0.59375 -0.164062 0.601562 -0.203125 0.625 -0.203125 C 1.082031 -0.203125 1.414062 -0.234375 1.625 -0.296875 C 1.84375 -0.359375 1.992188 -0.472656 2.078125 -0.640625 C 2.160156 -0.804688 2.203125 -1.066406 2.203125 -1.421875 L 2.203125 -9.515625 C 2.203125 -9.867188 2.164062 -10.125 2.09375 -10.28125 C 2.019531 -10.445312 1.875 -10.5625 1.65625 -10.625 C 1.4375 -10.695312 1.097656 -10.734375 0.640625 -10.734375 C 0.617188 -10.734375 0.609375 -10.765625 0.609375 -10.828125 C 0.609375 -10.898438 0.617188 -10.9375 0.640625 -10.9375 L 1.5 -10.921875 C 1.988281 -10.898438 2.375 -10.890625 2.65625 -10.890625 C 3.0625 -10.890625 3.476562 -10.90625 3.90625 -10.9375 C 4.414062 -10.957031 4.765625 -10.96875 4.953125 -10.96875 C 6.179688 -10.96875 7.265625 -10.734375 8.203125 -10.265625 C 9.148438 -9.804688 9.882812 -9.171875 10.40625 -8.359375 C 10.925781 -7.554688 11.1875 -6.65625 11.1875 -5.65625 C 11.1875 -4.519531 10.914062 -3.515625 10.375 -2.640625 C 9.832031 -1.773438 9.101562 -1.109375 8.1875 -0.640625 C 7.28125 -0.171875 6.285156 0.0625 5.203125 0.0625 Z M 5.015625 -0.15625 C 6.003906 -0.15625 6.875 -0.351562 7.625 -0.75 C 8.382812 -1.144531 8.976562 -1.726562 9.40625 -2.5 C 9.832031 -3.269531 10.046875 -4.191406 10.046875 -5.265625 C 10.046875 -6.296875 9.84375 -7.222656 9.4375 -8.046875 C 9.039062 -8.878906 8.460938 -9.535156 7.703125 -10.015625 C 6.953125 -10.503906 6.085938 -10.75 5.109375 -10.75 C 4.597656 -10.75 4.203125 -10.71875 3.921875 -10.65625 C 3.648438 -10.59375 3.445312 -10.472656 3.3125 -10.296875 C 3.1875 -10.117188 3.125 -9.847656 3.125 -9.484375 L 3.125 -1.609375 C 3.125 -1.253906 3.175781 -0.972656 3.28125 -0.765625 C 3.394531 -0.554688 3.582031 -0.398438 3.84375 -0.296875 C 4.113281 -0.203125 4.503906 -0.15625 5.015625 -0.15625 Z M 5.015625 -0.15625 "/></g></g></g><g fill="#000000" fill-opacity="1"><g transform="translate(91.36266, 58.37505)"><g><path d="M 12.140625 -0.203125 C 12.191406 -0.203125 12.21875 -0.164062 12.21875 -0.09375 C 12.21875 -0.03125 12.191406 0 12.140625 0 C 11.929688 0 11.59375 -0.0078125 11.125 -0.03125 C 10.6875 -0.0507812 10.363281 -0.0625 10.15625 -0.0625 C 9.90625 -0.0625 9.582031 -0.0507812 9.1875 -0.03125 C 8.8125 -0.0078125 8.53125 0 8.34375 0 C 8.300781 0 8.28125 -0.03125 8.28125 -0.09375 C 8.28125 -0.164062 8.300781 -0.203125 8.34375 -0.203125 C 8.820312 -0.203125 9.164062 -0.242188 9.375 -0.328125 C 9.582031 -0.421875 9.6875 -0.570312 9.6875 -0.78125 C 9.6875 -0.945312 9.625 -1.175781 9.5 -1.46875 L 7.859375 -5.015625 L 3.6875 -5.015625 L 2.5 -2.15625 C 2.332031 -1.757812 2.25 -1.429688 2.25 -1.171875 C 2.25 -0.835938 2.390625 -0.59375 2.671875 -0.4375 C 2.953125 -0.28125 3.390625 -0.203125 3.984375 -0.203125 C 4.046875 -0.203125 4.078125 -0.164062 4.078125 -0.09375 C 4.078125 -0.03125 4.046875 0 3.984375 0 C 3.773438 0 3.472656 -0.0078125 3.078125 -0.03125 C 2.640625 -0.0507812 2.253906 -0.0625 1.921875 -0.0625 C 1.628906 -0.0625 1.285156 -0.0507812 0.890625 -0.03125 C 0.546875 -0.0078125 0.257812 0 0.03125 0 C -0.0195312 0 -0.046875 -0.03125 -0.046875 -0.09375 C -0.046875 -0.164062 -0.0195312 -0.203125 0.03125 -0.203125 C 0.363281 -0.203125 0.640625 -0.257812 0.859375 -0.375 C 1.085938 -0.5 1.300781 -0.710938 1.5 -1.015625 C 1.707031 -1.316406 1.929688 -1.75 2.171875 -2.3125 L 5.828125 -11.109375 C 5.847656 -11.148438 5.882812 -11.171875 5.9375 -11.171875 C 5.988281 -11.171875 6.019531 -11.148438 6.03125 -11.109375 L 10.09375 -2.390625 C 10.363281 -1.796875 10.601562 -1.34375 10.8125 -1.03125 C 11.019531 -0.726562 11.226562 -0.515625 11.4375 -0.390625 C 11.644531 -0.265625 11.878906 -0.203125 12.140625 -0.203125 Z M 3.828125 -5.34375 L 7.703125 -5.34375 L 5.65625 -9.734375 Z M 3.828125 -5.34375 "/></g></g></g><g fill="#000000" fill-opacity="1"><g transform="translate(103.574901, 58.37505)"><g><path d="M 3.109375 -1.484375 C 3.109375 -1.148438 3.144531 -0.898438 3.21875 -0.734375 C 3.300781 -0.578125 3.441406 -0.46875 3.640625 -0.40625 C 3.847656 -0.351562 4.175781 -0.328125 4.625 -0.328125 L 6.859375 -0.328125 C 8.015625 -0.328125 8.695312 -1.070312 8.90625 -2.5625 C 8.90625 -2.59375 8.9375 -2.601562 9 -2.59375 C 9.0625 -2.59375 9.09375 -2.570312 9.09375 -2.53125 C 8.988281 -1.613281 8.9375 -0.859375 8.9375 -0.265625 C 8.9375 -0.171875 8.921875 -0.101562 8.890625 -0.0625 C 8.859375 -0.0195312 8.789062 0 8.6875 0 L 0.625 0 C 0.601562 0 0.59375 -0.03125 0.59375 -0.09375 C 0.59375 -0.164062 0.601562 -0.203125 0.625 -0.203125 C 1.082031 -0.203125 1.414062 -0.234375 1.625 -0.296875 C 1.84375 -0.359375 1.988281 -0.472656 2.0625 -0.640625 C 2.144531 -0.804688 2.1875 -1.066406 2.1875 -1.421875 L 2.1875 -9.515625 C 2.1875 -9.867188 2.144531 -10.125 2.0625 -10.28125 C 1.988281 -10.445312 1.84375 -10.5625 1.625 -10.625 C 1.414062 -10.695312 1.082031 -10.734375 0.625 -10.734375 C 0.601562 -10.734375 0.59375 -10.765625 0.59375 -10.828125 C 0.59375 -10.898438 0.601562 -10.9375 0.625 -10.9375 L 1.484375 -10.921875 C 1.972656 -10.898438 2.359375 -10.890625 2.640625 -10.890625 C 2.953125 -10.890625 3.351562 -10.898438 3.84375 -10.921875 L 4.671875 -10.9375 C 4.691406 -10.9375 4.703125 -10.898438 4.703125 -10.828125 C 4.703125 -10.765625 4.691406 -10.734375 4.671875 -10.734375 C 4.210938 -10.734375 3.875 -10.695312 3.65625 -10.625 C 3.445312 -10.5625 3.300781 -10.445312 3.21875 -10.28125 C 3.144531 -10.113281 3.109375 -9.851562 3.109375 -9.5 Z M 3.109375 -1.484375 "/></g></g></g><g fill="#000000" fill-opacity="1"><g transform="translate(112.847808, 58.37505)"><g><path d="M 3.359375 -1.421875 C 3.359375 -1.054688 3.394531 -0.789062 3.46875 -0.625 C 3.550781 -0.46875 3.695312 -0.359375 3.90625 -0.296875 C 4.113281 -0.234375 4.453125 -0.203125 4.921875 -0.203125 C 4.941406 -0.203125 4.953125 -0.164062 4.953125 -0.09375 C 4.953125 -0.03125 4.941406 0 4.921875 0 C 4.566406 0 4.289062 -0.00390625 4.09375 -0.015625 L 2.875 -0.03125 L 1.703125 -0.015625 C 1.484375 -0.00390625 1.195312 0 0.84375 0 C 0.800781 0 0.78125 -0.03125 0.78125 -0.09375 C 0.78125 -0.164062 0.800781 -0.203125 0.84375 -0.203125 C 1.289062 -0.203125 1.625 -0.234375 1.84375 -0.296875 C 2.0625 -0.359375 2.210938 -0.472656 2.296875 -0.640625 C 2.378906 -0.804688 2.421875 -1.066406 2.421875 -1.421875 L 2.421875 -9.515625 C 2.421875 -9.867188 2.378906 -10.125 2.296875 -10.28125 C 2.210938 -10.445312 2.0625 -10.5625 1.84375 -10.625 C 1.625 -10.695312 1.289062 -10.734375 0.84375 -10.734375 C 0.800781 -10.734375 0.78125 -10.765625 0.78125 -10.828125 C 0.78125 -10.898438 0.800781 -10.9375 0.84375 -10.9375 L 1.703125 -10.921875 C 2.191406 -10.898438 2.582031 -10.890625 2.875 -10.890625 C 3.195312 -10.890625 3.601562 -10.898438 4.09375 -10.921875 L 4.921875 -10.9375 C 4.941406 -10.9375 4.953125 -10.898438 4.953125 -10.828125 C 4.953125 -10.765625 4.941406 -10.734375 4.921875 -10.734375 C 4.460938 -10.734375 4.125 -10.695312 3.90625 -10.625 C 3.695312 -10.550781 3.550781 -10.429688 3.46875 -10.265625 C 3.394531 -10.097656 3.359375 -9.835938 3.359375 -9.484375 Z M 3.359375 -1.421875 "/></g></g></g><g fill="#000000" fill-opacity="1"><g transform="translate(118.621506, 58.37505)"><g><path d="M 7.125 -11.125 C 7.894531 -11.125 8.523438 -11.066406 9.015625 -10.953125 C 9.503906 -10.847656 10.019531 -10.65625 10.5625 -10.375 C 10.632812 -10.332031 10.679688 -10.296875 10.703125 -10.265625 C 10.722656 -10.234375 10.738281 -10.144531 10.75 -10 L 10.953125 -8 C 10.953125 -7.957031 10.921875 -7.929688 10.859375 -7.921875 C 10.796875 -7.921875 10.757812 -7.941406 10.75 -7.984375 C 10.488281 -8.953125 10.0625 -9.675781 9.46875 -10.15625 C 8.875 -10.644531 8.09375 -10.890625 7.125 -10.890625 C 6.09375 -10.890625 5.1875 -10.671875 4.40625 -10.234375 C 3.632812 -9.804688 3.035156 -9.191406 2.609375 -8.390625 C 2.191406 -7.585938 1.984375 -6.65625 1.984375 -5.59375 C 1.984375 -4.601562 2.21875 -3.679688 2.6875 -2.828125 C 3.15625 -1.972656 3.789062 -1.289062 4.59375 -0.78125 C 5.394531 -0.269531 6.25 -0.015625 7.15625 -0.015625 C 9.09375 -0.015625 10.332031 -0.96875 10.875 -2.875 C 10.875 -2.894531 10.898438 -2.90625 10.953125 -2.90625 C 11.035156 -2.90625 11.078125 -2.890625 11.078125 -2.859375 L 10.9375 -1 C 10.925781 -0.851562 10.90625 -0.765625 10.875 -0.734375 C 10.851562 -0.703125 10.8125 -0.660156 10.75 -0.609375 C 10.132812 -0.296875 9.5625 -0.078125 9.03125 0.046875 C 8.507812 0.171875 7.878906 0.234375 7.140625 0.234375 C 5.921875 0.234375 4.835938 -0.00390625 3.890625 -0.484375 C 2.941406 -0.972656 2.195312 -1.660156 1.65625 -2.546875 C 1.125 -3.429688 0.859375 -4.441406 0.859375 -5.578125 C 0.859375 -6.679688 1.125 -7.648438 1.65625 -8.484375 C 2.195312 -9.328125 2.941406 -9.976562 3.890625 -10.4375 C 4.835938 -10.894531 5.914062 -11.125 7.125 -11.125 Z M 7.125 -11.125 "/></g></g></g><g fill="#000000" fill-opacity="1"><g transform="translate(130.641292, 58.37505)"><g><path d="M 8.21875 -2.5625 C 8.21875 -2.59375 8.253906 -2.601562 8.328125 -2.59375 C 8.398438 -2.59375 8.4375 -2.570312 8.4375 -2.53125 C 8.332031 -1.800781 8.28125 -1.046875 8.28125 -0.265625 C 8.28125 -0.171875 8.257812 -0.101562 8.21875 -0.0625 C 8.175781 -0.0195312 8.101562 0 8 0 L 0.765625 0 C 0.742188 0 0.734375 -0.03125 0.734375 -0.09375 C 0.734375 -0.164062 0.742188 -0.203125 0.765625 -0.203125 C 1.222656 -0.203125 1.554688 -0.234375 1.765625 -0.296875 C 1.984375 -0.359375 2.128906 -0.472656 2.203125 -0.640625 C 2.285156 -0.804688 2.328125 -1.066406 2.328125 -1.421875 L 2.328125 -9.515625 C 2.328125 -9.867188 2.285156 -10.125 2.203125 -10.28125 C 2.128906 -10.445312 1.984375 -10.5625 1.765625 -10.625 C 1.554688 -10.695312 1.222656 -10.734375 0.765625 -10.734375 C 0.742188 -10.734375 0.734375 -10.765625 0.734375 -10.828125 C 0.734375 -10.898438 0.742188 -10.9375 0.765625 -10.9375 L 7.703125 -10.9375 C 7.804688 -10.9375 7.859375 -10.882812 7.859375 -10.78125 L 7.890625 -8.65625 C 7.890625 -8.625 7.859375 -8.609375 7.796875 -8.609375 C 7.734375 -8.609375 7.703125 -8.625 7.703125 -8.65625 C 7.703125 -9.257812 7.539062 -9.734375 7.21875 -10.078125 C 6.90625 -10.429688 6.492188 -10.609375 5.984375 -10.609375 L 4.78125 -10.609375 C 4.332031 -10.609375 4.003906 -10.578125 3.796875 -10.515625 C 3.585938 -10.460938 3.441406 -10.351562 3.359375 -10.1875 C 3.285156 -10.019531 3.25 -9.765625 3.25 -9.421875 L 3.25 -5.859375 L 5.5625 -5.859375 C 6.101562 -5.859375 6.476562 -5.945312 6.6875 -6.125 C 6.894531 -6.3125 7 -6.625 7 -7.0625 C 7 -7.09375 7.03125 -7.109375 7.09375 -7.109375 C 7.164062 -7.109375 7.203125 -7.09375 7.203125 -7.0625 L 7.1875 -5.6875 C 7.1875 -5.351562 7.191406 -5.101562 7.203125 -4.9375 L 7.234375 -4.109375 C 7.234375 -4.085938 7.195312 -4.078125 7.125 -4.078125 C 7.050781 -4.078125 7.015625 -4.085938 7.015625 -4.109375 C 7.015625 -4.640625 6.90625 -5.007812 6.6875 -5.21875 C 6.46875 -5.425781 6.078125 -5.53125 5.515625 -5.53125 L 3.25 -5.53125 L 3.25 -1.484375 C 3.25 -1.148438 3.285156 -0.898438 3.359375 -0.734375 C 3.441406 -0.578125 3.582031 -0.46875 3.78125 -0.40625 C 3.988281 -0.351562 4.320312 -0.328125 4.78125 -0.328125 L 6.390625 -0.328125 C 6.859375 -0.328125 7.253906 -0.53125 7.578125 -0.9375 C 7.910156 -1.351562 8.125 -1.894531 8.21875 -2.5625 Z M 8.21875 -2.5625 "/></g></g></g><g fill="#000000" fill-opacity="1"><g transform="translate(63.424216, 105.375082)"><g><path d="M 12.140625 -0.203125 C 12.191406 -0.203125 12.21875 -0.164062 12.21875 -0.09375 C 12.21875 -0.03125 12.191406 0 12.140625 0 C 11.929688 0 11.59375 -0.0078125 11.125 -0.03125 C 10.6875 -0.0507812 10.363281 -0.0625 10.15625 -0.0625 C 9.90625 -0.0625 9.582031 -0.0507812 9.1875 -0.03125 C 8.8125 -0.0078125 8.53125 0 8.34375 0 C 8.300781 0 8.28125 -0.03125 8.28125 -0.09375 C 8.28125 -0.164062 8.300781 -0.203125 8.34375 -0.203125 C 8.820312 -0.203125 9.164062 -0.242188 9.375 -0.328125 C 9.582031 -0.421875 9.6875 -0.570312 9.6875 -0.78125 C 9.6875 -0.945312 9.625 -1.175781 9.5 -1.46875 L 7.859375 -5.015625 L 3.6875 -5.015625 L 2.5 -2.15625 C 2.332031 -1.757812 2.25 -1.429688 2.25 -1.171875 C 2.25 -0.835938 2.390625 -0.59375 2.671875 -0.4375 C 2.953125 -0.28125 3.390625 -0.203125 3.984375 -0.203125 C 4.046875 -0.203125 4.078125 -0.164062 4.078125 -0.09375 C 4.078125 -0.03125 4.046875 0 3.984375 0 C 3.773438 0 3.472656 -0.0078125 3.078125 -0.03125 C 2.640625 -0.0507812 2.253906 -0.0625 1.921875 -0.0625 C 1.628906 -0.0625 1.285156 -0.0507812 0.890625 -0.03125 C 0.546875 -0.0078125 0.257812 0 0.03125 0 C -0.0195312 0 -0.046875 -0.03125 -0.046875 -0.09375 C -0.046875 -0.164062 -0.0195312 -0.203125 0.03125 -0.203125 C 0.363281 -0.203125 0.640625 -0.257812 0.859375 -0.375 C 1.085938 -0.5 1.300781 -0.710938 1.5 -1.015625 C 1.707031 -1.316406 1.929688 -1.75 2.171875 -2.3125 L 5.828125 -11.109375 C 5.847656 -11.148438 5.882812 -11.171875 5.9375 -11.171875 C 5.988281 -11.171875 6.019531 -11.148438 6.03125 -11.109375 L 10.09375 -2.390625 C 10.363281 -1.796875 10.601562 -1.34375 10.8125 -1.03125 C 11.019531 -0.726562 11.226562 -0.515625 11.4375 -0.390625 C 11.644531 -0.265625 11.878906 -0.203125 12.140625 -0.203125 Z M 3.828125 -5.34375 L 7.703125 -5.34375 L 5.65625 -9.734375 Z M 3.828125 -5.34375 "/></g></g></g><g fill="#000000" fill-opacity="1"><g transform="translate(75.636457, 105.375082)"><g><path d="M 12.234375 -10.9375 C 12.265625 -10.9375 12.28125 -10.898438 12.28125 -10.828125 C 12.28125 -10.765625 12.265625 -10.734375 12.234375 -10.734375 C 11.734375 -10.734375 11.378906 -10.609375 11.171875 -10.359375 C 10.972656 -10.117188 10.875 -9.695312 10.875 -9.09375 L 10.875 0.1875 C 10.875 0.21875 10.84375 0.238281 10.78125 0.25 C 10.71875 0.257812 10.675781 0.253906 10.65625 0.234375 L 2.75 -9.5 L 2.453125 -9.828125 L 2.453125 -1.8125 C 2.453125 -1.21875 2.550781 -0.800781 2.75 -0.5625 C 2.945312 -0.320312 3.289062 -0.203125 3.78125 -0.203125 C 3.8125 -0.203125 3.828125 -0.164062 3.828125 -0.09375 C 3.828125 -0.03125 3.8125 0 3.78125 0 C 3.5 0 3.28125 -0.00390625 3.125 -0.015625 L 2.296875 -0.03125 L 1.4375 -0.015625 C 1.28125 -0.00390625 1.050781 0 0.75 0 C 0.726562 0 0.71875 -0.03125 0.71875 -0.09375 C 0.71875 -0.164062 0.726562 -0.203125 0.75 -0.203125 C 1.25 -0.203125 1.59375 -0.316406 1.78125 -0.546875 C 1.96875 -0.785156 2.0625 -1.207031 2.0625 -1.8125 L 2.0625 -10.203125 C 1.65625 -10.554688 1.238281 -10.734375 0.8125 -10.734375 C 0.769531 -10.734375 0.75 -10.765625 0.75 -10.828125 C 0.75 -10.898438 0.769531 -10.9375 0.8125 -10.9375 L 1.4375 -10.921875 C 1.5625 -10.910156 1.742188 -10.90625 1.984375 -10.90625 C 2.179688 -10.90625 2.34375 -10.910156 2.46875 -10.921875 C 2.59375 -10.929688 2.691406 -10.9375 2.765625 -10.9375 C 2.847656 -10.9375 2.914062 -10.914062 2.96875 -10.875 C 3.019531 -10.832031 3.082031 -10.75 3.15625 -10.625 C 3.28125 -10.414062 3.414062 -10.21875 3.5625 -10.03125 L 10.484375 -1.4375 L 10.484375 -9.09375 C 10.484375 -9.695312 10.390625 -10.117188 10.203125 -10.359375 C 10.015625 -10.609375 9.675781 -10.734375 9.1875 -10.734375 C 9.164062 -10.734375 9.15625 -10.765625 9.15625 -10.828125 C 9.15625 -10.898438 9.164062 -10.9375 9.1875 -10.9375 L 9.859375 -10.921875 C 10.203125 -10.898438 10.476562 -10.890625 10.6875 -10.890625 C 10.882812 -10.890625 11.171875 -10.898438 11.546875 -10.921875 Z M 12.234375 -10.9375 "/></g></g></g><g fill="#000000" fill-opacity="1"><g transform="translate(88.321087, 105.375082)"><g><path d="M 12.140625 -0.203125 C 12.191406 -0.203125 12.21875 -0.164062 12.21875 -0.09375 C 12.21875 -0.03125 12.191406 0 12.140625 0 C 11.929688 0 11.59375 -0.0078125 11.125 -0.03125 C 10.6875 -0.0507812 10.363281 -0.0625 10.15625 -0.0625 C 9.90625 -0.0625 9.582031 -0.0507812 9.1875 -0.03125 C 8.8125 -0.0078125 8.53125 0 8.34375 0 C 8.300781 0 8.28125 -0.03125 8.28125 -0.09375 C 8.28125 -0.164062 8.300781 -0.203125 8.34375 -0.203125 C 8.820312 -0.203125 9.164062 -0.242188 9.375 -0.328125 C 9.582031 -0.421875 9.6875 -0.570312 9.6875 -0.78125 C 9.6875 -0.945312 9.625 -1.175781 9.5 -1.46875 L 7.859375 -5.015625 L 3.6875 -5.015625 L 2.5 -2.15625 C 2.332031 -1.757812 2.25 -1.429688 2.25 -1.171875 C 2.25 -0.835938 2.390625 -0.59375 2.671875 -0.4375 C 2.953125 -0.28125 3.390625 -0.203125 3.984375 -0.203125 C 4.046875 -0.203125 4.078125 -0.164062 4.078125 -0.09375 C 4.078125 -0.03125 4.046875 0 3.984375 0 C 3.773438 0 3.472656 -0.0078125 3.078125 -0.03125 C 2.640625 -0.0507812 2.253906 -0.0625 1.921875 -0.0625 C 1.628906 -0.0625 1.285156 -0.0507812 0.890625 -0.03125 C 0.546875 -0.0078125 0.257812 0 0.03125 0 C -0.0195312 0 -0.046875 -0.03125 -0.046875 -0.09375 C -0.046875 -0.164062 -0.0195312 -0.203125 0.03125 -0.203125 C 0.363281 -0.203125 0.640625 -0.257812 0.859375 -0.375 C 1.085938 -0.5 1.300781 -0.710938 1.5 -1.015625 C 1.707031 -1.316406 1.929688 -1.75 2.171875 -2.3125 L 5.828125 -11.109375 C 5.847656 -11.148438 5.882812 -11.171875 5.9375 -11.171875 C 5.988281 -11.171875 6.019531 -11.148438 6.03125 -11.109375 L 10.09375 -2.390625 C 10.363281 -1.796875 10.601562 -1.34375 10.8125 -1.03125 C 11.019531 -0.726562 11.226562 -0.515625 11.4375 -0.390625 C 11.644531 -0.265625 11.878906 -0.203125 12.140625 -0.203125 Z M 3.828125 -5.34375 L 7.703125 -5.34375 L 5.65625 -9.734375 Z M 3.828125 -5.34375 "/></g></g></g><g fill="#000000" fill-opacity="1"><g transform="translate(100.533328, 105.375082)"><g><path d="M 3.109375 -1.484375 C 3.109375 -1.148438 3.144531 -0.898438 3.21875 -0.734375 C 3.300781 -0.578125 3.441406 -0.46875 3.640625 -0.40625 C 3.847656 -0.351562 4.175781 -0.328125 4.625 -0.328125 L 6.859375 -0.328125 C 8.015625 -0.328125 8.695312 -1.070312 8.90625 -2.5625 C 8.90625 -2.59375 8.9375 -2.601562 9 -2.59375 C 9.0625 -2.59375 9.09375 -2.570312 9.09375 -2.53125 C 8.988281 -1.613281 8.9375 -0.859375 8.9375 -0.265625 C 8.9375 -0.171875 8.921875 -0.101562 8.890625 -0.0625 C 8.859375 -0.0195312 8.789062 0 8.6875 0 L 0.625 0 C 0.601562 0 0.59375 -0.03125 0.59375 -0.09375 C 0.59375 -0.164062 0.601562 -0.203125 0.625 -0.203125 C 1.082031 -0.203125 1.414062 -0.234375 1.625 -0.296875 C 1.84375 -0.359375 1.988281 -0.472656 2.0625 -0.640625 C 2.144531 -0.804688 2.1875 -1.066406 2.1875 -1.421875 L 2.1875 -9.515625 C 2.1875 -9.867188 2.144531 -10.125 2.0625 -10.28125 C 1.988281 -10.445312 1.84375 -10.5625 1.625 -10.625 C 1.414062 -10.695312 1.082031 -10.734375 0.625 -10.734375 C 0.601562 -10.734375 0.59375 -10.765625 0.59375 -10.828125 C 0.59375 -10.898438 0.601562 -10.9375 0.625 -10.9375 L 1.484375 -10.921875 C 1.972656 -10.898438 2.359375 -10.890625 2.640625 -10.890625 C 2.953125 -10.890625 3.351562 -10.898438 3.84375 -10.921875 L 4.671875 -10.9375 C 4.691406 -10.9375 4.703125 -10.898438 4.703125 -10.828125 C 4.703125 -10.765625 4.691406 -10.734375 4.671875 -10.734375 C 4.210938 -10.734375 3.875 -10.695312 3.65625 -10.625 C 3.445312 -10.5625 3.300781 -10.445312 3.21875 -10.28125 C 3.144531 -10.113281 3.109375 -9.851562 3.109375 -9.5 Z M 3.109375 -1.484375 "/></g></g></g><g fill="#000000" fill-opacity="1"><g transform="translate(109.806235, 105.375082)"><g><path d="M 10.6875 -10.9375 C 10.71875 -10.9375 10.734375 -10.898438 10.734375 -10.828125 C 10.734375 -10.765625 10.71875 -10.734375 10.6875 -10.734375 C 10.257812 -10.734375 9.835938 -10.59375 9.421875 -10.3125 C 9.015625 -10.039062 8.648438 -9.65625 8.328125 -9.15625 L 5.859375 -5.40625 L 5.859375 -1.421875 C 5.859375 -1.054688 5.894531 -0.789062 5.96875 -0.625 C 6.039062 -0.46875 6.179688 -0.359375 6.390625 -0.296875 C 6.597656 -0.234375 6.9375 -0.203125 7.40625 -0.203125 C 7.4375 -0.203125 7.453125 -0.164062 7.453125 -0.09375 C 7.453125 -0.03125 7.4375 0 7.40625 0 C 7.050781 0 6.773438 -0.00390625 6.578125 -0.015625 L 5.390625 -0.03125 L 4.203125 -0.015625 C 3.992188 -0.00390625 3.710938 0 3.359375 0 C 3.328125 0 3.3125 -0.03125 3.3125 -0.09375 C 3.3125 -0.164062 3.328125 -0.203125 3.359375 -0.203125 C 3.816406 -0.203125 4.148438 -0.234375 4.359375 -0.296875 C 4.578125 -0.359375 4.726562 -0.472656 4.8125 -0.640625 C 4.894531 -0.804688 4.9375 -1.066406 4.9375 -1.421875 L 4.9375 -5.140625 L 1.9375 -9.484375 C 1.632812 -9.941406 1.335938 -10.265625 1.046875 -10.453125 C 0.753906 -10.640625 0.394531 -10.734375 -0.03125 -10.734375 C -0.0703125 -10.734375 -0.09375 -10.765625 -0.09375 -10.828125 C -0.09375 -10.898438 -0.0703125 -10.9375 -0.03125 -10.9375 L 0.609375 -10.921875 C 0.890625 -10.898438 1.101562 -10.890625 1.25 -10.890625 C 1.625 -10.890625 2.09375 -10.898438 2.65625 -10.921875 L 3.5625 -10.9375 C 3.59375 -10.9375 3.609375 -10.898438 3.609375 -10.828125 C 3.609375 -10.765625 3.59375 -10.734375 3.5625 -10.734375 C 3.21875 -10.734375 2.96875 -10.703125 2.8125 -10.640625 C 2.65625 -10.585938 2.578125 -10.503906 2.578125 -10.390625 C 2.578125 -10.328125 2.632812 -10.207031 2.75 -10.03125 L 5.6875 -5.8125 L 7.921875 -9.203125 C 8.179688 -9.617188 8.3125 -9.941406 8.3125 -10.171875 C 8.3125 -10.546875 8 -10.734375 7.375 -10.734375 C 7.34375 -10.734375 7.328125 -10.765625 7.328125 -10.828125 C 7.328125 -10.898438 7.34375 -10.9375 7.375 -10.9375 L 8.15625 -10.921875 C 8.59375 -10.898438 8.984375 -10.890625 9.328125 -10.890625 C 9.523438 -10.890625 9.765625 -10.898438 10.046875 -10.921875 Z M 10.6875 -10.9375 "/></g></g></g><g fill="#000000" fill-opacity="1"><g transform="translate(120.42634, 105.375082)"><g><path d="M 2.421875 -8.8125 C 2.421875 -8.351562 2.53125 -7.953125 2.75 -7.609375 C 2.96875 -7.273438 3.238281 -6.992188 3.5625 -6.765625 C 3.882812 -6.535156 4.332031 -6.253906 4.90625 -5.921875 C 5.507812 -5.554688 5.976562 -5.253906 6.3125 -5.015625 C 6.644531 -4.773438 6.929688 -4.46875 7.171875 -4.09375 C 7.410156 -3.71875 7.53125 -3.269531 7.53125 -2.75 C 7.53125 -2.195312 7.394531 -1.695312 7.125 -1.25 C 6.851562 -0.800781 6.453125 -0.445312 5.921875 -0.1875 C 5.390625 0.0703125 4.738281 0.203125 3.96875 0.203125 C 3.5625 0.203125 3.171875 0.160156 2.796875 0.078125 C 2.429688 -0.00390625 2.03125 -0.160156 1.59375 -0.390625 C 1.53125 -0.421875 1.488281 -0.457031 1.46875 -0.5 C 1.457031 -0.550781 1.445312 -0.625 1.4375 -0.71875 L 1.171875 -3 L 1.171875 -3.015625 C 1.171875 -3.054688 1.195312 -3.078125 1.25 -3.078125 C 1.3125 -3.085938 1.347656 -3.070312 1.359375 -3.03125 C 1.484375 -2.21875 1.796875 -1.515625 2.296875 -0.921875 C 2.796875 -0.328125 3.484375 -0.03125 4.359375 -0.03125 C 4.972656 -0.03125 5.492188 -0.195312 5.921875 -0.53125 C 6.347656 -0.875 6.5625 -1.410156 6.5625 -2.140625 C 6.5625 -2.660156 6.441406 -3.109375 6.203125 -3.484375 C 5.972656 -3.867188 5.691406 -4.1875 5.359375 -4.4375 C 5.023438 -4.6875 4.570312 -4.976562 4 -5.3125 C 3.445312 -5.644531 3.007812 -5.929688 2.6875 -6.171875 C 2.363281 -6.421875 2.085938 -6.726562 1.859375 -7.09375 C 1.628906 -7.457031 1.515625 -7.898438 1.515625 -8.421875 C 1.515625 -9.003906 1.664062 -9.5 1.96875 -9.90625 C 2.269531 -10.3125 2.65625 -10.613281 3.125 -10.8125 C 3.601562 -11.019531 4.117188 -11.125 4.671875 -11.125 C 5.316406 -11.125 5.984375 -10.984375 6.671875 -10.703125 C 6.847656 -10.640625 6.9375 -10.539062 6.9375 -10.40625 L 7.09375 -8.5625 C 7.09375 -8.507812 7.054688 -8.484375 6.984375 -8.484375 C 6.921875 -8.484375 6.882812 -8.507812 6.875 -8.5625 C 6.832031 -9.164062 6.601562 -9.707031 6.1875 -10.1875 C 5.78125 -10.664062 5.195312 -10.90625 4.4375 -10.90625 C 3.738281 -10.90625 3.226562 -10.695312 2.90625 -10.28125 C 2.582031 -9.875 2.421875 -9.382812 2.421875 -8.8125 Z M 2.421875 -8.8125 "/></g></g></g><g fill="#000000" fill-opacity="1"><g transform="translate(128.911927, 105.375082)"><g><path d="M 3.15625 -10.640625 C 2.414062 -10.640625 1.875 -10.460938 1.53125 -10.109375 C 1.195312 -9.765625 0.972656 -9.144531 0.859375 -8.25 C 0.859375 -8.21875 0.820312 -8.203125 0.75 -8.203125 C 0.675781 -8.203125 0.640625 -8.21875 0.640625 -8.25 C 0.691406 -8.5625 0.742188 -9.0625 0.796875 -9.75 C 0.859375 -10.445312 0.890625 -10.972656 0.890625 -11.328125 C 0.890625 -11.378906 0.925781 -11.40625 1 -11.40625 C 1.070312 -11.40625 1.109375 -11.378906 1.109375 -11.328125 C 1.109375 -11.066406 1.414062 -10.9375 2.03125 -10.9375 C 3.03125 -10.90625 4.203125 -10.890625 5.546875 -10.890625 C 6.234375 -10.890625 6.960938 -10.898438 7.734375 -10.921875 L 8.921875 -10.9375 C 9.347656 -10.9375 9.660156 -10.960938 9.859375 -11.015625 C 10.054688 -11.078125 10.179688 -11.195312 10.234375 -11.375 C 10.242188 -11.414062 10.28125 -11.4375 10.34375 -11.4375 C 10.40625 -11.4375 10.4375 -11.414062 10.4375 -11.375 C 10.394531 -11.050781 10.351562 -10.550781 10.3125 -9.875 C 10.28125 -9.207031 10.265625 -8.664062 10.265625 -8.25 C 10.265625 -8.21875 10.226562 -8.203125 10.15625 -8.203125 C 10.09375 -8.203125 10.0625 -8.21875 10.0625 -8.25 C 10.0625 -8.863281 9.992188 -9.335938 9.859375 -9.671875 C 9.734375 -10.015625 9.519531 -10.257812 9.21875 -10.40625 C 8.914062 -10.5625 8.488281 -10.640625 7.9375 -10.640625 C 7.332031 -10.640625 6.90625 -10.617188 6.65625 -10.578125 C 6.414062 -10.535156 6.25 -10.4375 6.15625 -10.28125 C 6.070312 -10.132812 6.03125 -9.867188 6.03125 -9.484375 L 6.03125 -1.421875 C 6.03125 -1.054688 6.070312 -0.789062 6.15625 -0.625 C 6.238281 -0.46875 6.398438 -0.359375 6.640625 -0.296875 C 6.890625 -0.234375 7.28125 -0.203125 7.8125 -0.203125 C 7.832031 -0.203125 7.84375 -0.164062 7.84375 -0.09375 C 7.84375 -0.03125 7.832031 0 7.8125 0 C 7.425781 0 7.117188 -0.00390625 6.890625 -0.015625 L 5.546875 -0.03125 L 4.265625 -0.015625 C 4.035156 -0.00390625 3.71875 0 3.3125 0 C 3.28125 0 3.265625 -0.03125 3.265625 -0.09375 C 3.265625 -0.164062 3.28125 -0.203125 3.3125 -0.203125 C 3.832031 -0.203125 4.210938 -0.234375 4.453125 -0.296875 C 4.703125 -0.359375 4.867188 -0.472656 4.953125 -0.640625 C 5.046875 -0.804688 5.09375 -1.066406 5.09375 -1.421875 L 5.09375 -9.515625 C 5.09375 -9.898438 5.046875 -10.164062 4.953125 -10.3125 C 4.859375 -10.457031 4.691406 -10.546875 4.453125 -10.578125 C 4.210938 -10.617188 3.78125 -10.640625 3.15625 -10.640625 Z M 3.15625 -10.640625 "/></g></g></g></svg>